<svg id="Layer_1" enable-background="new 0 0 512 512" height="512" viewBox="0 0 512 512" width="512" xmlns="http://www.w3.org/2000/svg"><path d="m371.6 0h-231.2c-19.8 0-35.9 16.1-35.9 35.9v417.9c0 19.8 16.1 35.9 35.9 35.9h3.9v10.3c0 6.6 5.4 12 12 12s12-5.4 12-12v-10.4h175.4v10.4c0 6.6 5.4 12 12 12s12-5.4 12-12v-10.4h3.9c19.8 0 35.9-16.1 35.9-35.9v-417.8c-.1-19.8-16.2-35.9-35.9-35.9zm-231.2 24h231.1c6.5 0 11.9 5.3 11.9 11.9v117.5h-254.8v-117.5c0-6.6 5.3-11.9 11.8-11.9zm231.2 441.6h-231.2c-6.5 0-11.9-5.3-11.9-11.9v-276.3h254.8v276.4c.1 6.5-5.2 11.8-11.7 11.8zm-196.1-227v46.4l12.8 6.2c6 2.9 8.5 10.1 5.6 16-2.1 4.3-6.4 6.8-10.8 6.8-1.8 0-3.5-.4-5.2-1.2l-19.6-9.5c-4.1-2-6.8-6.2-6.8-10.8v-61.4c0-4.6 2.6-8.8 6.8-10.8l19.6-9.5c6-2.9 13.1-.4 16 5.6s.4 13.1-5.6 16zm-21.9-117.1v-47.7c0-4.6 2.6-8.8 6.8-10.8l15.2-7.4c6-2.9 13.1-.4 16 5.6s.4 13.1-5.6 16l-8.5 4.1v32.7l8.5 4.1c6 2.9 8.5 10.1 5.6 16-2.1 4.3-6.4 6.8-10.8 6.8-1.8 0-3.5-.4-5.2-1.2l-15.2-7.4c-4.1-2-6.8-6.2-6.8-10.8z"/></svg>