<?xml version="1.0" encoding="UTF-8"?>
<svg xmlns="http://www.w3.org/2000/svg" id="Layer_3" data-name="Layer 3" viewBox="0 0 64 64" width="512" height="512"><path d="M58.433,40.019l-3.3-3.3a26.349,26.349,0,0,0-37.264,0L14.586,40H9a8.009,8.009,0,0,0-8,8v3a5.006,5.006,0,0,0,5,5h5.069a7.993,7.993,0,0,0,15.862,0H41.069a7.993,7.993,0,0,0,15.862,0H59a4,4,0,0,0,4-4V45A5.006,5.006,0,0,0,58.433,40.019ZM61,45v1H58a1,1,0,0,1-1-1V42h1A3,3,0,0,1,61,45Zm-5.414-5H38V31.05a24.169,24.169,0,0,1,15.718,7.082Zm-36.3-1.868A24.18,24.18,0,0,1,36,31.012V40H17.414ZM9,42v3a2,2,0,0,1-2,2H3.09A6.006,6.006,0,0,1,9,42ZM19,61a6,6,0,1,1,6-6A6.006,6.006,0,0,1,19,61Zm30,0a6,6,0,1,1,6-6A6.006,6.006,0,0,1,49,61Zm10-7H56.931a7.993,7.993,0,0,0-15.862,0H26.931a7.993,7.993,0,0,0-15.862,0H6a3,3,0,0,1-3-3V49H7a4,4,0,0,0,4-4V42H55v3a3,3,0,0,0,3,3h3v4A2,2,0,0,1,59,54Z"/><rect x="28" y="44" width="8" height="2"/><rect x="38" y="44" width="8" height="2"/><path d="M19,51a4,4,0,1,0,4,4A4,4,0,0,0,19,51Zm0,6a2,2,0,1,1,2-2A2,2,0,0,1,19,57Z"/><path d="M49,51a4,4,0,1,0,4,4A4,4,0,0,0,49,51Zm0,6a2,2,0,1,1,2-2A2,2,0,0,1,49,57Z"/><path d="M5.764,25H2a1,1,0,0,0-.707,1.707l4,4A1,1,0,0,0,6,31h7a1,1,0,0,0,.8-.4L16.5,27h31l2.7,3.6a1,1,0,0,0,.8.4h7a1,1,0,0,0,.707-.293l4-4A1,1,0,0,0,62,25H58.236L57,24.382V21.618L58.236,21H62a1,1,0,0,0,.707-1.707l-4-4A1,1,0,0,0,58,15H51a1,1,0,0,0-.8.4L47.5,19H34.657l1.8-1.8,4.455.636a1,1,0,0,0,.848-.283l4.95-4.95A1,1,0,0,0,47,11.9V6.243a1,1,0,0,0-1.707-.707L42.631,8.2l-1.311.437L39.366,6.68,39.8,5.369l2.661-2.662A1,1,0,0,0,41.757,1H36.1a1,1,0,0,0-.707.293l-4.95,4.95a1,1,0,0,0-.283.848l.636,4.455L23.343,19H16.5l-2.7-3.6A1,1,0,0,0,13,15H6a1,1,0,0,0-.707.293l-4,4A1,1,0,0,0,2,21H5.764L7,21.618v2.764Zm26.8-12.394a1,1,0,0,0,.283-.848L32.211,7.3l4.3-4.3h2.828L38.222,4.122a.991.991,0,0,0-.242.39l-.707,2.121a1,1,0,0,0,.242,1.024l2.828,2.828a1,1,0,0,0,1.024.242l2.121-.707a.991.991,0,0,0,.39-.242L45,8.657v2.828l-4.3,4.3-4.455-.637a.987.987,0,0,0-.848.283L31.829,19H26.171Zm-24.118,7.5-2-1A1,1,0,0,0,6,19H4.414l2-2H12.5l2.7,3.6a1,1,0,0,0,.8.4H48a1,1,0,0,0,.8-.4L51.5,17h6.086l2,2H58a1,1,0,0,0-.447.105l-2,1A1,1,0,0,0,55,21v4a1,1,0,0,0,.553.895l2,1A1,1,0,0,0,58,27h1.586l-2,2H51.5l-2.7-3.6A1,1,0,0,0,48,25H16a1,1,0,0,0-.8.4L12.5,29H6.414l-2-2H6a1,1,0,0,0,.447-.105l2-1A1,1,0,0,0,9,25V21A1,1,0,0,0,8.447,20.105Z"/></svg>
