<svg width="98" height="49" viewBox="0 0 98 49" fill="none" xmlns="http://www.w3.org/2000/svg">
<path d="M18.7271 8.78769H22.3156V27.1971C22.3156 29.2405 21.8608 30.9413 20.9512 32.2994C20.0417 33.6575 18.8331 34.6793 17.3254 35.3645C15.8302 36.0374 14.2042 36.3738 12.4474 36.3738C10.6033 36.3738 8.93371 36.0374 7.43853 35.3645C5.95581 34.6793 4.77835 33.6575 3.90616 32.2994C3.04643 30.9413 2.61657 29.2405 2.61657 27.1971V8.78769H6.18631V27.1971C6.18631 28.6175 6.44797 29.7888 6.97128 30.7108C7.4946 31.6328 8.2235 32.3181 9.15799 32.7667C10.1049 33.2152 11.2014 33.4395 12.4474 33.4395C13.7058 33.4395 14.8023 33.2152 15.7368 32.7667C16.6837 32.3181 17.4189 31.6328 17.9422 30.7108C18.4655 29.7888 18.7271 28.6175 18.7271 27.1971V8.78769ZM34.7824 33.533C35.6048 33.533 36.3648 33.3647 37.0626 33.0283C37.7603 32.6919 38.3335 32.2309 38.782 31.6453C39.2306 31.0472 39.486 30.3681 39.5483 29.6081H42.8377C42.7754 30.8042 42.3705 31.9194 41.6229 32.9536C40.8877 33.9753 39.9221 34.8039 38.726 35.4393C37.5298 36.0623 36.2153 36.3738 34.7824 36.3738C33.2623 36.3738 31.9353 36.1059 30.8015 35.5701C29.6801 35.0344 28.7456 34.2992 27.998 33.3647C27.2629 32.4303 26.7084 31.3587 26.3346 30.1501C25.9733 28.929 25.7926 27.6394 25.7926 26.2813V25.4963C25.7926 24.1382 25.9733 22.8549 26.3346 21.6463C26.7084 20.4252 27.2629 19.3474 27.998 18.4129C28.7456 17.4784 29.6801 16.7433 30.8015 16.2075C31.9353 15.6718 33.2623 15.4039 34.7824 15.4039C36.3648 15.4039 37.7479 15.7278 38.9315 16.3757C40.1152 17.0112 41.0435 17.8834 41.7163 18.9923C42.4016 20.0888 42.7754 21.3348 42.8377 22.7303H39.5483C39.486 21.8955 39.2493 21.1416 38.8381 20.4688C38.4394 19.796 37.8911 19.2602 37.1934 18.8615C36.5081 18.4503 35.7044 18.2447 34.7824 18.2447C33.7233 18.2447 32.8324 18.4565 32.1098 18.8802C31.3996 19.2913 30.8326 19.852 30.409 20.5622C29.9978 21.26 29.6988 22.0387 29.5119 22.8985C29.3375 23.7457 29.2502 24.6117 29.2502 25.4963V26.2813C29.2502 27.166 29.3375 28.0382 29.5119 28.8979C29.6863 29.7576 29.9791 30.5364 30.3903 31.2341C30.8139 31.9319 31.3809 32.4926 32.0911 32.9162C32.8138 33.3274 33.7109 33.533 34.7824 33.533ZM49.4172 18.9549V36H45.9596V15.7777H49.3238L49.4172 18.9549ZM55.7344 15.6655L55.7157 18.8802C55.4291 18.8179 55.155 18.7805 54.8934 18.768C54.6442 18.7431 54.3576 18.7307 54.0336 18.7307C53.2362 18.7307 52.5322 18.8553 51.9217 19.1044C51.3111 19.3536 50.7941 19.7025 50.3704 20.1511C49.9468 20.5996 49.6104 21.1354 49.3612 21.7584C49.1244 22.3689 48.9687 23.0418 48.8939 23.7769L47.9221 24.3376C47.9221 23.1165 48.0404 21.9702 48.2772 20.8987C48.5264 19.8271 48.9064 18.8802 49.4172 18.0578C49.9281 17.223 50.576 16.5751 51.361 16.1141C52.1584 15.6406 53.1054 15.4039 54.2018 15.4039C54.451 15.4039 54.7376 15.435 55.0616 15.4973C55.3855 15.5472 55.6098 15.6032 55.7344 15.6655ZM66.1827 36.3738C64.7748 36.3738 63.4976 36.1371 62.3513 35.6636C61.2175 35.1777 60.2394 34.4986 59.417 33.6264C58.6071 32.7542 57.9841 31.72 57.548 30.5239C57.112 29.3278 56.8939 28.0195 56.8939 26.599V25.8141C56.8939 24.1694 57.1369 22.7053 57.6228 21.422C58.1087 20.1262 58.7691 19.0297 59.6039 18.1326C60.4387 17.2355 61.3857 16.5564 62.4448 16.0954C63.5039 15.6344 64.6003 15.4039 65.7342 15.4039C67.1795 15.4039 68.4255 15.6531 69.4721 16.1515C70.5312 16.6499 71.3972 17.3476 72.07 18.2447C72.7428 19.1294 73.2412 20.176 73.5652 21.3846C73.8891 22.5807 74.0511 23.889 74.0511 25.3095V26.8607H58.9498V24.0385H70.5935V23.7769C70.5437 22.8798 70.3568 22.0076 70.0328 21.1603C69.7213 20.3131 69.2229 19.6153 68.5376 19.0671C67.8523 18.5188 66.9178 18.2447 65.7342 18.2447C64.9492 18.2447 64.2265 18.4129 63.5662 18.7493C62.9058 19.0733 62.3389 19.5592 61.8654 20.2071C61.3919 20.8551 61.0243 21.6463 60.7627 22.5807C60.501 23.5152 60.3702 24.593 60.3702 25.8141V26.599C60.3702 27.5585 60.501 28.4618 60.7627 29.3091C61.0368 30.1439 61.4293 30.879 61.9401 31.5145C62.4635 32.1499 63.0927 32.6483 63.8278 33.0096C64.5754 33.371 65.4227 33.5516 66.3696 33.5516C67.5907 33.5516 68.6248 33.3024 69.4721 32.804C70.3194 32.3057 71.0607 31.6391 71.6962 30.8042L73.7895 32.4676C73.3534 33.128 72.7989 33.7572 72.1261 34.3553C71.4532 34.9534 70.6247 35.4393 69.6403 35.8131C68.6685 36.1869 67.5159 36.3738 66.1827 36.3738ZM90.069 32.0751V7.29251H93.5453V36H90.368L90.069 32.0751ZM76.4628 26.1131V25.7206C76.4628 24.1756 76.6497 22.7739 77.0235 21.5154C77.4098 20.2445 77.9518 19.1543 78.6495 18.2447C79.3598 17.3351 80.2008 16.6374 81.1727 16.1515C82.157 15.6531 83.2535 15.4039 84.4621 15.4039C85.733 15.4039 86.8419 15.6282 87.7888 16.0767C88.7482 16.5128 89.5581 17.1545 90.2185 18.0018C90.8913 18.8366 91.4209 19.8458 91.8071 21.0295C92.1934 22.2132 92.4613 23.5526 92.6108 25.0478V26.7673C92.4737 28.25 92.2059 29.5832 91.8071 30.7669C91.4209 31.9505 90.8913 32.9598 90.2185 33.7946C89.5581 34.6294 88.7482 35.2711 87.7888 35.7197C86.8294 36.1557 85.708 36.3738 84.4247 36.3738C83.241 36.3738 82.157 36.1184 81.1727 35.6075C80.2008 35.0967 79.3598 34.3802 78.6495 33.4582C77.9518 32.5362 77.4098 31.4522 77.0235 30.2062C76.6497 28.9477 76.4628 27.5834 76.4628 26.1131ZM79.9391 25.7206V26.1131C79.9391 27.1224 80.0388 28.0693 80.2382 28.954C80.45 29.8386 80.7739 30.6173 81.21 31.2902C81.6461 31.963 82.2006 32.4926 82.8734 32.8788C83.5463 33.2526 84.3499 33.4395 85.2844 33.4395C86.4307 33.4395 87.3714 33.1965 88.1066 32.7106C88.8542 32.2247 89.4522 31.583 89.9008 30.7856C90.3493 29.9881 90.6982 29.1222 90.9474 28.1877V23.6834C90.7979 22.9981 90.5798 22.3378 90.2933 21.7023C90.0192 21.0544 89.6578 20.4813 89.2093 19.9829C88.7732 19.472 88.2312 19.0671 87.5833 18.768C86.9478 18.469 86.194 18.3195 85.3218 18.3195C84.3748 18.3195 83.5587 18.5188 82.8734 18.9175C82.2006 19.3038 81.6461 19.8396 81.21 20.5249C80.7739 21.1977 80.45 21.9827 80.2382 22.8798C80.0388 23.7644 79.9391 24.7114 79.9391 25.7206Z" fill="white"/>
<path d="M33.4888 43.4434C33.4888 43.3288 33.4708 43.2277 33.4349 43.14C33.4012 43.0501 33.3405 42.9692 33.2528 42.8972C33.1674 42.8253 33.0483 42.7567 32.8954 42.6916C32.7448 42.6264 32.5537 42.5601 32.3222 42.4926C32.0795 42.4207 31.8603 42.3409 31.6648 42.2532C31.4692 42.1633 31.3017 42.0611 31.1624 41.9464C31.023 41.8318 30.9163 41.7003 30.8421 41.5519C30.7679 41.4036 30.7308 41.2339 30.7308 41.0428C30.7308 40.8518 30.7701 40.6753 30.8488 40.5135C30.9275 40.3516 31.0399 40.2112 31.186 40.092C31.3343 39.9706 31.5108 39.8762 31.7153 39.8088C31.9199 39.7414 32.148 39.7077 32.3998 39.7077C32.7684 39.7077 33.0808 39.7785 33.3371 39.9201C33.5956 40.0594 33.7923 40.2426 33.9271 40.4696C34.062 40.6944 34.1294 40.9349 34.1294 41.1912H33.4821C33.4821 41.0069 33.4427 40.8439 33.3641 40.7023C33.2854 40.5584 33.1663 40.446 33.0067 40.3651C32.8471 40.282 32.6448 40.2404 32.3998 40.2404C32.1683 40.2404 31.9772 40.2752 31.8266 40.3449C31.676 40.4146 31.5636 40.509 31.4894 40.6281C31.4175 40.7472 31.3815 40.8832 31.3815 41.0361C31.3815 41.1395 31.4029 41.2339 31.4456 41.3193C31.4906 41.4025 31.5591 41.48 31.6513 41.5519C31.7457 41.6239 31.8648 41.6902 32.0087 41.7509C32.1548 41.8116 32.329 41.87 32.5313 41.9262C32.81 42.0049 33.0505 42.0925 33.2528 42.1892C33.4551 42.2858 33.6214 42.3949 33.7518 42.5162C33.8844 42.6354 33.9822 42.7714 34.0451 42.9242C34.1103 43.0748 34.1429 43.2456 34.1429 43.4367C34.1429 43.6367 34.1025 43.8177 34.0215 43.9795C33.9406 44.1414 33.8249 44.2796 33.6743 44.3942C33.5237 44.5089 33.3427 44.5977 33.1314 44.6606C32.9224 44.7213 32.6886 44.7516 32.4301 44.7516C32.2031 44.7516 31.9794 44.7202 31.7592 44.6572C31.5411 44.5943 31.3422 44.4999 31.1624 44.374C30.9848 44.2481 30.8421 44.093 30.7342 43.9087C30.6285 43.7222 30.5757 43.5064 30.5757 43.2614H31.2231C31.2231 43.43 31.2557 43.5749 31.3208 43.6963C31.386 43.8154 31.4748 43.9143 31.5872 43.993C31.7018 44.0717 31.8311 44.1301 31.9749 44.1683C32.1211 44.2043 32.2728 44.2223 32.4301 44.2223C32.6571 44.2223 32.8493 44.1908 33.0067 44.1279C33.164 44.0649 33.2831 43.975 33.3641 43.8582C33.4472 43.7413 33.4888 43.603 33.4888 43.4434ZM36.2537 44.7516C35.9997 44.7516 35.7693 44.7089 35.5625 44.6235C35.358 44.5359 35.1815 44.4133 35.0332 44.256C34.8871 44.0987 34.7747 43.9121 34.696 43.6963C34.6173 43.4805 34.578 43.2445 34.578 42.9883V42.8467C34.578 42.55 34.6218 42.2858 34.7095 42.0543C34.7972 41.8206 34.9163 41.6227 35.0669 41.4609C35.2175 41.2991 35.3883 41.1766 35.5794 41.0934C35.7704 41.0102 35.9682 40.9687 36.1728 40.9687C36.4335 40.9687 36.6583 41.0136 36.8471 41.1035C37.0382 41.1934 37.1944 41.3193 37.3158 41.4811C37.4372 41.6407 37.5271 41.8295 37.5855 42.0476C37.6439 42.2634 37.6732 42.4994 37.6732 42.7556V43.0355H34.9489V42.5264H37.0494V42.4791C37.0404 42.3173 37.0067 42.16 36.9483 42.0071C36.8921 41.8543 36.8022 41.7284 36.6785 41.6295C36.5549 41.5306 36.3863 41.4811 36.1728 41.4811C36.0312 41.4811 35.9008 41.5115 35.7817 41.5722C35.6625 41.6306 35.5603 41.7183 35.4749 41.8352C35.3894 41.952 35.3231 42.0948 35.2759 42.2634C35.2287 42.4319 35.2051 42.6264 35.2051 42.8467V42.9883C35.2051 43.1613 35.2287 43.3243 35.2759 43.4772C35.3254 43.6278 35.3962 43.7604 35.4883 43.875C35.5827 43.9896 35.6963 44.0796 35.8289 44.1447C35.9637 44.2099 36.1166 44.2425 36.2874 44.2425C36.5077 44.2425 36.6943 44.1976 36.8471 44.1077C37 44.0177 37.1337 43.8975 37.2483 43.7469L37.626 44.047C37.5473 44.1661 37.4473 44.2796 37.3259 44.3875C37.2045 44.4954 37.055 44.5831 36.8775 44.6505C36.7021 44.7179 36.4942 44.7516 36.2537 44.7516ZM38.8871 41.6093V44.6842H38.2633V41.0361H38.8702L38.8871 41.6093ZM40.0267 41.0159L40.0233 41.5958C39.9716 41.5845 39.9222 41.5778 39.875 41.5755C39.83 41.5711 39.7783 41.5688 39.7199 41.5688C39.576 41.5688 39.449 41.5913 39.3389 41.6362C39.2288 41.6812 39.1355 41.7441 39.059 41.825C38.9826 41.906 38.9219 42.0026 38.877 42.115C38.8343 42.2252 38.8062 42.3465 38.7927 42.4791L38.6174 42.5803C38.6174 42.36 38.6387 42.1532 38.6814 41.9599C38.7264 41.7666 38.7949 41.5958 38.8871 41.4474C38.9793 41.2968 39.0961 41.1799 39.2377 41.0968C39.3816 41.0114 39.5524 40.9687 39.7502 40.9687C39.7952 40.9687 39.8469 40.9743 39.9053 40.9855C39.9638 40.9945 40.0042 41.0046 40.0267 41.0159ZM41.6351 44.1211L42.6331 41.0361H43.2704L41.9588 44.6842H41.5407L41.6351 44.1211ZM40.8023 41.0361L41.8307 44.138L41.9015 44.6842H41.4834L40.1617 41.0361H40.8023ZM44.4101 41.0361V44.6842H43.783V41.0361H44.4101ZM43.7358 40.0684C43.7358 39.9673 43.7661 39.8819 43.8268 39.8122C43.8898 39.7425 43.9819 39.7077 44.1033 39.7077C44.2224 39.7077 44.3135 39.7425 44.3764 39.8122C44.4416 39.8819 44.4742 39.9673 44.4742 40.0684C44.4742 40.1651 44.4416 40.2482 44.3764 40.3179C44.3135 40.3854 44.2224 40.4191 44.1033 40.4191C43.9819 40.4191 43.8898 40.3854 43.8268 40.3179C43.7661 40.2482 43.7358 40.1651 43.7358 40.0684ZM46.7333 44.2391C46.8817 44.2391 47.0188 44.2088 47.1447 44.1481C47.2705 44.0874 47.3739 44.0043 47.4549 43.8986C47.5358 43.7907 47.5818 43.6682 47.5931 43.5311H48.1865C48.1753 43.7469 48.1022 43.9481 47.9673 44.1346C47.8347 44.3189 47.6605 44.4684 47.4447 44.5831C47.229 44.6954 46.9918 44.7516 46.7333 44.7516C46.4591 44.7516 46.2197 44.7033 46.0152 44.6067C45.8129 44.51 45.6443 44.3774 45.5094 44.2088C45.3768 44.0402 45.2768 43.8469 45.2093 43.6289C45.1441 43.4086 45.1116 43.176 45.1116 42.9309V42.7893C45.1116 42.5443 45.1441 42.3128 45.2093 42.0948C45.2768 41.8745 45.3768 41.6801 45.5094 41.5115C45.6443 41.3429 45.8129 41.2103 46.0152 41.1136C46.2197 41.017 46.4591 40.9687 46.7333 40.9687C47.0188 40.9687 47.2683 41.0271 47.4818 41.144C47.6954 41.2586 47.8628 41.416 47.9842 41.616C48.1078 41.8138 48.1753 42.0386 48.1865 42.2903H47.5931C47.5818 42.1397 47.5391 42.0037 47.465 41.8824C47.393 41.761 47.2941 41.6643 47.1683 41.5924C47.0446 41.5182 46.8997 41.4811 46.7333 41.4811C46.5423 41.4811 46.3815 41.5194 46.2512 41.5958C46.1231 41.67 46.0208 41.7711 45.9444 41.8992C45.8702 42.0251 45.8162 42.1656 45.7825 42.3207C45.751 42.4735 45.7353 42.6297 45.7353 42.7893V42.9309C45.7353 43.0905 45.751 43.2479 45.7825 43.403C45.814 43.5581 45.8668 43.6986 45.941 43.8244C46.0174 43.9503 46.1197 44.0515 46.2478 44.1279C46.3782 44.2021 46.54 44.2391 46.7333 44.2391ZM46.3894 44.7179H46.8378L46.7974 44.8966C46.9278 44.9191 47.0458 44.973 47.1514 45.0585C47.2593 45.1439 47.3132 45.2844 47.3132 45.4799C47.3132 45.5856 47.2908 45.6811 47.2458 45.7665C47.2031 45.8542 47.139 45.9283 47.0536 45.989C46.9682 46.052 46.8614 46.1003 46.7333 46.134C46.6074 46.1677 46.4602 46.1846 46.2916 46.1846L46.268 45.8238C46.3714 45.8238 46.4647 45.8126 46.5479 45.7901C46.6333 45.7676 46.7007 45.7317 46.7502 45.6822C46.8019 45.6328 46.8277 45.5687 46.8277 45.49C46.8277 45.4159 46.8086 45.3574 46.7704 45.3147C46.7322 45.272 46.6726 45.2394 46.5917 45.2169C46.513 45.1967 46.4108 45.1821 46.2849 45.1731L46.3894 44.7179ZM48.5845 42.9006V42.8231C48.5845 42.5601 48.6227 42.3162 48.6991 42.0914C48.7755 41.8644 48.8857 41.6677 49.0295 41.5014C49.1734 41.3328 49.3476 41.2024 49.5521 41.1103C49.7567 41.0159 49.986 40.9687 50.24 40.9687C50.4962 40.9687 50.7266 41.0159 50.9312 41.1103C51.1379 41.2024 51.3133 41.3328 51.4571 41.5014C51.6032 41.6677 51.7145 41.8644 51.7909 42.0914C51.8673 42.3162 51.9056 42.5601 51.9056 42.8231V42.9006C51.9056 43.1636 51.8673 43.4075 51.7909 43.6323C51.7145 43.857 51.6032 44.0537 51.4571 44.2223C51.3133 44.3886 51.1391 44.519 50.9345 44.6134C50.7322 44.7056 50.503 44.7516 50.2467 44.7516C49.9905 44.7516 49.7601 44.7056 49.5555 44.6134C49.351 44.519 49.1756 44.3886 49.0295 44.2223C48.8857 44.0537 48.7755 43.857 48.6991 43.6323C48.6227 43.4075 48.5845 43.1636 48.5845 42.9006ZM49.2082 42.8231V42.9006C49.2082 43.0827 49.2296 43.2546 49.2723 43.4165C49.315 43.5761 49.3791 43.7177 49.4645 43.8413C49.5521 43.9649 49.6612 44.0627 49.7915 44.1346C49.9219 44.2043 50.0736 44.2391 50.2467 44.2391C50.4175 44.2391 50.567 44.2043 50.6951 44.1346C50.8255 44.0627 50.9334 43.9649 51.0188 43.8413C51.1042 43.7177 51.1683 43.5761 51.211 43.4165C51.256 43.2546 51.2784 43.0827 51.2784 42.9006V42.8231C51.2784 42.6432 51.256 42.4735 51.211 42.3139C51.1683 42.1521 51.1031 42.0094 51.0154 41.8857C50.93 41.7599 50.8221 41.661 50.6918 41.589C50.5636 41.5171 50.413 41.4811 50.24 41.4811C50.0691 41.4811 49.9185 41.5171 49.7882 41.589C49.66 41.661 49.5521 41.7599 49.4645 41.8857C49.3791 42.0094 49.315 42.1521 49.2723 42.3139C49.2296 42.4735 49.2082 42.6432 49.2082 42.8231ZM54.6738 43.7165C54.6738 43.6266 54.6536 43.5435 54.6131 43.467C54.5749 43.3884 54.4951 43.3176 54.3737 43.2546C54.2546 43.1894 54.0748 43.1332 53.8343 43.086C53.632 43.0433 53.4488 42.9928 53.2847 42.9343C53.1229 42.8759 52.9846 42.8051 52.87 42.7219C52.7576 42.6387 52.6711 42.541 52.6104 42.4286C52.5497 42.3162 52.5193 42.1847 52.5193 42.0341C52.5193 41.8902 52.5508 41.7542 52.6137 41.6261C52.6789 41.498 52.77 41.3845 52.8868 41.2856C53.006 41.1867 53.1487 41.1091 53.315 41.0529C53.4814 40.9967 53.6668 40.9687 53.8714 40.9687C54.1636 40.9687 54.4131 41.0203 54.6199 41.1237C54.8267 41.2271 54.9851 41.3654 55.0953 41.5385C55.2054 41.7093 55.2605 41.8992 55.2605 42.1083H54.6367C54.6367 42.0071 54.6064 41.9093 54.5457 41.8149C54.4873 41.7183 54.4007 41.6385 54.2861 41.5755C54.1737 41.5126 54.0355 41.4811 53.8714 41.4811C53.6983 41.4811 53.5578 41.5081 53.4499 41.5621C53.3443 41.6138 53.2667 41.6801 53.2173 41.761C53.1701 41.8419 53.1465 41.9273 53.1465 42.0172C53.1465 42.0847 53.1577 42.1454 53.1802 42.1993C53.2049 42.251 53.2476 42.2993 53.3083 42.3443C53.369 42.387 53.4544 42.4274 53.5645 42.4657C53.6747 42.5039 53.8152 42.5421 53.986 42.5803C54.285 42.6477 54.5311 42.7286 54.7244 42.8231C54.9177 42.9175 55.0616 43.0332 55.156 43.1703C55.2504 43.3074 55.2976 43.4738 55.2976 43.6693C55.2976 43.8289 55.2639 43.975 55.1964 44.1077C55.1312 44.2403 55.0357 44.3549 54.9098 44.4516C54.7862 44.546 54.6379 44.6201 54.4648 44.6741C54.2939 44.7258 54.1018 44.7516 53.8882 44.7516C53.5668 44.7516 53.2948 44.6943 53.0723 44.5797C52.8498 44.465 52.6812 44.3167 52.5665 44.1346C52.4519 43.9526 52.3946 43.7604 52.3946 43.5581H53.0217C53.0307 43.7289 53.0802 43.8649 53.1701 43.966C53.26 44.0649 53.3701 44.1357 53.5005 44.1785C53.6309 44.2189 53.7601 44.2391 53.8882 44.2391C54.0591 44.2391 54.2018 44.2167 54.3164 44.1717C54.4333 44.1268 54.5221 44.0649 54.5828 43.9863C54.6435 43.9076 54.6738 43.8177 54.6738 43.7165ZM58.2986 39.7751V44.6842H57.6479V39.7751H58.2986ZM60.3553 41.9835V42.5162H58.157V41.9835H60.3553ZM60.6891 39.7751V40.3078H58.157V39.7751H60.6891ZM61.9098 41.0361V44.6842H61.2826V41.0361H61.9098ZM61.2354 40.0684C61.2354 39.9673 61.2658 39.8819 61.3265 39.8122C61.3894 39.7425 61.4816 39.7077 61.603 39.7077C61.7221 39.7077 61.8131 39.7425 61.8761 39.8122C61.9412 39.8819 61.9738 39.9673 61.9738 40.0684C61.9738 40.1651 61.9412 40.2482 61.8761 40.3179C61.8131 40.3854 61.7221 40.4191 61.603 40.4191C61.4816 40.4191 61.3894 40.3854 61.3265 40.3179C61.2658 40.2482 61.2354 40.1651 61.2354 40.0684ZM63.3968 41.8149V44.6842H62.773V41.0361H63.3631L63.3968 41.8149ZM63.2484 42.7219L62.9888 42.7118C62.9911 42.4623 63.0282 42.2319 63.1001 42.0206C63.172 41.8071 63.2732 41.6216 63.4035 41.4643C63.5339 41.3069 63.689 41.1856 63.8688 41.1001C64.0509 41.0125 64.2521 40.9687 64.4724 40.9687C64.6522 40.9687 64.814 40.9934 64.9579 41.0428C65.1017 41.09 65.2242 41.1665 65.3254 41.2721C65.4288 41.3777 65.5075 41.5149 65.5614 41.6834C65.6153 41.8498 65.6423 42.0532 65.6423 42.2937V44.6842H65.0152V42.287C65.0152 42.0959 64.9871 41.9431 64.9309 41.8284C64.8747 41.7115 64.7927 41.6272 64.6848 41.5755C64.5769 41.5216 64.4443 41.4946 64.2869 41.4946C64.1318 41.4946 63.9902 41.5272 63.8621 41.5924C63.7362 41.6576 63.6272 41.7475 63.535 41.8621C63.4451 41.9768 63.3743 42.1083 63.3226 42.2566C63.2732 42.4027 63.2484 42.5578 63.2484 42.7219ZM68.6028 44.0604V42.1824C68.6028 42.0386 68.5735 41.9138 68.5151 41.8082C68.4589 41.7003 68.3735 41.6171 68.2589 41.5587C68.1442 41.5002 68.0026 41.471 67.834 41.471C67.6767 41.471 67.5384 41.498 67.4193 41.5519C67.3024 41.6059 67.2103 41.6767 67.1428 41.7644C67.0777 41.852 67.0451 41.9464 67.0451 42.0476H66.4213C66.4213 41.9172 66.455 41.788 66.5225 41.6598C66.5899 41.5317 66.6865 41.416 66.8124 41.3126C66.9405 41.2069 67.0934 41.1237 67.271 41.0631C67.4508 41.0001 67.6508 40.9687 67.8711 40.9687C68.1363 40.9687 68.3701 41.0136 68.5724 41.1035C68.777 41.1934 68.9366 41.3294 69.0512 41.5115C69.1681 41.6913 69.2265 41.9172 69.2265 42.1892V43.8885C69.2265 44.0099 69.2366 44.1391 69.2569 44.2762C69.2793 44.4133 69.3119 44.5314 69.3546 44.6303V44.6842H68.7039C68.6724 44.6123 68.6477 44.5167 68.6297 44.3976C68.6117 44.2762 68.6028 44.1638 68.6028 44.0604ZM68.7107 42.4724L68.7174 42.9107H68.0869C67.9093 42.9107 67.7509 42.9253 67.6115 42.9545C67.4721 42.9815 67.3552 43.0231 67.2608 43.0793C67.1664 43.1355 67.0945 43.2063 67.0451 43.2917C66.9956 43.3749 66.9709 43.4727 66.9709 43.585C66.9709 43.6997 66.9967 43.8042 67.0484 43.8986C67.1001 43.993 67.1777 44.0683 67.2811 44.1245C67.3867 44.1785 67.516 44.2054 67.6688 44.2054C67.8599 44.2054 68.0285 44.165 68.1746 44.0841C68.3207 44.0031 68.4364 43.9042 68.5218 43.7873C68.6095 43.6705 68.6567 43.557 68.6634 43.4468L68.9298 43.7469C68.9141 43.8413 68.8714 43.9458 68.8017 44.0604C68.732 44.1751 68.6387 44.2852 68.5218 44.3909C68.4072 44.4943 68.2701 44.5808 68.1105 44.6505C67.9532 44.7179 67.7756 44.7516 67.5778 44.7516C67.3305 44.7516 67.1136 44.7033 66.9271 44.6067C66.7427 44.51 66.5989 44.3808 66.4955 44.2189C66.3943 44.0548 66.3438 43.8716 66.3438 43.6693C66.3438 43.4738 66.382 43.3018 66.4584 43.1535C66.5348 43.0029 66.645 42.8781 66.7888 42.7792C66.9327 42.6781 67.1057 42.6017 67.308 42.55C67.5103 42.4983 67.7362 42.4724 67.9857 42.4724H68.7107ZM70.6933 41.8149V44.6842H70.0696V41.0361H70.6596L70.6933 41.8149ZM70.545 42.7219L70.2853 42.7118C70.2876 42.4623 70.3247 42.2319 70.3966 42.0206C70.4685 41.8071 70.5697 41.6216 70.7001 41.4643C70.8304 41.3069 70.9855 41.1856 71.1653 41.1001C71.3474 41.0125 71.5486 40.9687 71.7689 40.9687C71.9487 40.9687 72.1105 40.9934 72.2544 41.0428C72.3982 41.09 72.5207 41.1665 72.6219 41.2721C72.7253 41.3777 72.804 41.5149 72.8579 41.6834C72.9119 41.8498 72.9388 42.0532 72.9388 42.2937V44.6842H72.3117V42.287C72.3117 42.0959 72.2836 41.9431 72.2274 41.8284C72.1712 41.7115 72.0892 41.6272 71.9813 41.5755C71.8734 41.5216 71.7408 41.4946 71.5834 41.4946C71.4283 41.4946 71.2867 41.5272 71.1586 41.5924C71.0327 41.6576 70.9237 41.7475 70.8316 41.8621C70.7416 41.9768 70.6708 42.1083 70.6191 42.2566C70.5697 42.4027 70.545 42.5578 70.545 42.7219ZM75.2081 44.2391C75.3564 44.2391 75.4935 44.2088 75.6194 44.1481C75.7453 44.0874 75.8487 44.0043 75.9296 43.8986C76.0105 43.7907 76.0566 43.6682 76.0679 43.5311H76.6613C76.65 43.7469 76.577 43.9481 76.4421 44.1346C76.3095 44.3189 76.1353 44.4684 75.9195 44.5831C75.7037 44.6954 75.4666 44.7516 75.2081 44.7516C74.9339 44.7516 74.6945 44.7033 74.4899 44.6067C74.2876 44.51 74.119 44.3774 73.9842 44.2088C73.8516 44.0402 73.7515 43.8469 73.6841 43.6289C73.6189 43.4086 73.5863 43.176 73.5863 42.9309V42.7893C73.5863 42.5443 73.6189 42.3128 73.6841 42.0948C73.7515 41.8745 73.8516 41.6801 73.9842 41.5115C74.119 41.3429 74.2876 41.2103 74.4899 41.1136C74.6945 41.017 74.9339 40.9687 75.2081 40.9687C75.4935 40.9687 75.7431 41.0271 75.9566 41.144C76.1701 41.2586 76.3376 41.416 76.459 41.616C76.5826 41.8138 76.65 42.0386 76.6613 42.2903H76.0679C76.0566 42.1397 76.0139 42.0037 75.9397 41.8824C75.8678 41.761 75.7689 41.6643 75.643 41.5924C75.5194 41.5182 75.3744 41.4811 75.2081 41.4811C75.017 41.4811 74.8563 41.5194 74.7259 41.5958C74.5978 41.67 74.4955 41.7711 74.4191 41.8992C74.3449 42.0251 74.291 42.1656 74.2573 42.3207C74.2258 42.4735 74.2101 42.6297 74.2101 42.7893V42.9309C74.2101 43.0905 74.2258 43.2479 74.2573 43.403C74.2887 43.5581 74.3416 43.6986 74.4157 43.8244C74.4922 43.9503 74.5944 44.0515 74.7226 44.1279C74.8529 44.2021 75.0148 44.2391 75.2081 44.2391ZM78.7383 44.7516C78.4843 44.7516 78.2539 44.7089 78.0471 44.6235C77.8426 44.5359 77.6661 44.4133 77.5178 44.256C77.3717 44.0987 77.2593 43.9121 77.1806 43.6963C77.102 43.4805 77.0626 43.2445 77.0626 42.9883V42.8467C77.0626 42.55 77.1065 42.2858 77.1941 42.0543C77.2818 41.8206 77.4009 41.6227 77.5515 41.4609C77.7021 41.2991 77.8729 41.1766 78.064 41.0934C78.2551 41.0102 78.4529 40.9687 78.6574 40.9687C78.9182 40.9687 79.1429 41.0136 79.3317 41.1035C79.5228 41.1934 79.679 41.3193 79.8004 41.4811C79.9218 41.6407 80.0117 41.8295 80.0701 42.0476C80.1286 42.2634 80.1578 42.4994 80.1578 42.7556V43.0355H77.4335V42.5264H79.534V42.4791C79.5251 42.3173 79.4913 42.16 79.4329 42.0071C79.3767 41.8543 79.2868 41.7284 79.1632 41.6295C79.0395 41.5306 78.871 41.4811 78.6574 41.4811C78.5158 41.4811 78.3854 41.5115 78.2663 41.5722C78.1472 41.6306 78.0449 41.7183 77.9595 41.8352C77.8741 41.952 77.8078 42.0948 77.7606 42.2634C77.7134 42.4319 77.6898 42.6264 77.6898 42.8467V42.9883C77.6898 43.1613 77.7134 43.3243 77.7606 43.4772C77.81 43.6278 77.8808 43.7604 77.973 43.875C78.0674 43.9896 78.1809 44.0796 78.3135 44.1447C78.4484 44.2099 78.6012 44.2425 78.772 44.2425C78.9923 44.2425 79.1789 44.1976 79.3317 44.1077C79.4846 44.0177 79.6183 43.8975 79.733 43.7469L80.1106 44.047C80.0319 44.1661 79.9319 44.2796 79.8105 44.3875C79.6891 44.4954 79.5397 44.5831 79.3621 44.6505C79.1868 44.7179 78.9788 44.7516 78.7383 44.7516ZM81.4257 41.0361V44.6842H80.7985V41.0361H81.4257ZM80.7513 40.0684C80.7513 39.9673 80.7817 39.8819 80.8424 39.8122C80.9053 39.7425 80.9975 39.7077 81.1189 39.7077C81.238 39.7077 81.329 39.7425 81.392 39.8122C81.4571 39.8819 81.4897 39.9673 81.4897 40.0684C81.4897 40.1651 81.4571 40.2482 81.392 40.3179C81.329 40.3854 81.238 40.4191 81.1189 40.4191C80.9975 40.4191 80.9053 40.3854 80.8424 40.3179C80.7817 40.2482 80.7513 40.1651 80.7513 40.0684ZM82.9127 41.6093V44.6842H82.2889V41.0361H82.8958L82.9127 41.6093ZM84.0523 41.0159L84.0489 41.5958C83.9972 41.5845 83.9478 41.5778 83.9006 41.5755C83.8556 41.5711 83.8039 41.5688 83.7455 41.5688C83.6016 41.5688 83.4746 41.5913 83.3645 41.6362C83.2544 41.6812 83.1611 41.7441 83.0847 41.825C83.0082 41.906 82.9475 42.0026 82.9026 42.115C82.8599 42.2252 82.8318 42.3465 82.8183 42.4791L82.643 42.5803C82.643 42.36 82.6643 42.1532 82.707 41.9599C82.752 41.7666 82.8205 41.5958 82.9127 41.4474C83.0049 41.2968 83.1217 41.1799 83.2634 41.0968C83.4072 41.0114 83.578 40.9687 83.7758 40.9687C83.8208 40.9687 83.8725 40.9743 83.9309 40.9855C83.9894 40.9945 84.0298 41.0046 84.0523 41.0159ZM84.2581 42.9006V42.8231C84.2581 42.5601 84.2963 42.3162 84.3728 42.0914C84.4492 41.8644 84.5593 41.6677 84.7032 41.5014C84.847 41.3328 85.0212 41.2024 85.2258 41.1103C85.4303 41.0159 85.6596 40.9687 85.9136 40.9687C86.1698 40.9687 86.4002 41.0159 86.6048 41.1103C86.8116 41.2024 86.9869 41.3328 87.1308 41.5014C87.2769 41.6677 87.3881 41.8644 87.4646 42.0914C87.541 42.3162 87.5792 42.5601 87.5792 42.8231V42.9006C87.5792 43.1636 87.541 43.4075 87.4646 43.6323C87.3881 43.857 87.2769 44.0537 87.1308 44.2223C86.9869 44.3886 86.8127 44.519 86.6082 44.6134C86.4059 44.7056 86.1766 44.7516 85.9203 44.7516C85.6641 44.7516 85.4337 44.7056 85.2292 44.6134C85.0246 44.519 84.8493 44.3886 84.7032 44.2223C84.5593 44.0537 84.4492 43.857 84.3728 43.6323C84.2963 43.4075 84.2581 43.1636 84.2581 42.9006ZM84.8819 42.8231V42.9006C84.8819 43.0827 84.9032 43.2546 84.9459 43.4165C84.9886 43.5761 85.0527 43.7177 85.1381 43.8413C85.2258 43.9649 85.3348 44.0627 85.4652 44.1346C85.5955 44.2043 85.7473 44.2391 85.9203 44.2391C86.0912 44.2391 86.2406 44.2043 86.3688 44.1346C86.4991 44.0627 86.607 43.9649 86.6924 43.8413C86.7779 43.7177 86.8419 43.5761 86.8846 43.4165C86.9296 43.2546 86.9521 43.0827 86.9521 42.9006V42.8231C86.9521 42.6432 86.9296 42.4735 86.8846 42.3139C86.8419 42.1521 86.7767 42.0094 86.6891 41.8857C86.6037 41.7599 86.4958 41.661 86.3654 41.589C86.2373 41.5171 86.0867 41.4811 85.9136 41.4811C85.7428 41.4811 85.5922 41.5171 85.4618 41.589C85.3337 41.661 85.2258 41.7599 85.1381 41.8857C85.0527 42.0094 84.9886 42.1521 84.9459 42.3139C84.9032 42.4735 84.8819 42.6432 84.8819 42.8231ZM90.3474 43.7165C90.3474 43.6266 90.3272 43.5435 90.2868 43.467C90.2485 43.3884 90.1688 43.3176 90.0474 43.2546C89.9282 43.1894 89.7484 43.1332 89.5079 43.086C89.3056 43.0433 89.1224 42.9928 88.9583 42.9343C88.7965 42.8759 88.6583 42.8051 88.5436 42.7219C88.4312 42.6387 88.3447 42.541 88.284 42.4286C88.2233 42.3162 88.193 42.1847 88.193 42.0341C88.193 41.8902 88.2244 41.7542 88.2874 41.6261C88.3526 41.498 88.4436 41.3845 88.5605 41.2856C88.6796 41.1867 88.8223 41.1091 88.9887 41.0529C89.155 40.9967 89.3405 40.9687 89.545 40.9687C89.8372 40.9687 90.0867 41.0203 90.2935 41.1237C90.5003 41.2271 90.6588 41.3654 90.7689 41.5385C90.879 41.7093 90.9341 41.8992 90.9341 42.1083H90.3104C90.3104 42.0071 90.28 41.9093 90.2193 41.8149C90.1609 41.7183 90.0743 41.6385 89.9597 41.5755C89.8473 41.5126 89.7091 41.4811 89.545 41.4811C89.3719 41.4811 89.2314 41.5081 89.1235 41.5621C89.0179 41.6138 88.9403 41.6801 88.8909 41.761C88.8437 41.8419 88.8201 41.9273 88.8201 42.0172C88.8201 42.0847 88.8313 42.1454 88.8538 42.1993C88.8785 42.251 88.9212 42.2993 88.9819 42.3443C89.0426 42.387 89.128 42.4274 89.2382 42.4657C89.3483 42.5039 89.4888 42.5421 89.6596 42.5803C89.9586 42.6477 90.2047 42.7286 90.398 42.8231C90.5913 42.9175 90.7352 43.0332 90.8296 43.1703C90.924 43.3074 90.9712 43.4738 90.9712 43.6693C90.9712 43.8289 90.9375 43.975 90.8701 44.1077C90.8049 44.2403 90.7093 44.3549 90.5835 44.4516C90.4598 44.546 90.3115 44.6201 90.1384 44.6741C89.9676 44.7258 89.7754 44.7516 89.5619 44.7516C89.2404 44.7516 88.9684 44.6943 88.7459 44.5797C88.5234 44.465 88.3548 44.3167 88.2402 44.1346C88.1255 43.9526 88.0682 43.7604 88.0682 43.5581H88.6953C88.7043 43.7289 88.7538 43.8649 88.8437 43.966C88.9336 44.0649 89.0437 44.1357 89.1741 44.1785C89.3045 44.2189 89.4337 44.2391 89.5619 44.2391C89.7327 44.2391 89.8754 44.2167 89.9901 44.1717C90.1069 44.1268 90.1957 44.0649 90.2564 43.9863C90.3171 43.9076 90.3474 43.8177 90.3474 43.7165Z" fill="white"/>
<rect x="2.57895" y="41.2632" width="25.7895" height="3.86842" fill="url(#paint0_linear_1_13)"/>
<defs>
<linearGradient id="paint0_linear_1_13" x1="2.57895" y1="43.1974" x2="28.3684" y2="43.1974" gradientUnits="userSpaceOnUse">
<stop stop-color="white"/>
<stop offset="1" stop-color="#172D63"/>
</linearGradient>
</defs>
</svg>
